<?xml version="1.0" encoding="UTF-8"?>
<svg width="25px" height="22px" viewBox="0 0 25 22" version="1.1" xmlns="http://www.w3.org/2000/svg" xmlns:xlink="http://www.w3.org/1999/xlink">
    <!-- Generator: Sketch 60.1 (88133) - https://sketch.com -->
    <title>“</title>
    <desc>Created with Sketch.</desc>
    <g id="Homepage" stroke="none" stroke-width="1" fill="none" fill-rule="evenodd">
        <g id="1200-Homepage---Value-comparison--DE" transform="translate(-404.000000, -2473.000000)" fill="#3B3B3B" fill-rule="nonzero">
            <path d="M409.080645,2495 C407.467734,2495 406.217746,2494.37065 405.330645,2493.11194 C404.443544,2491.85323 404,2490.01991 404,2487.61194 C404,2484.32834 404.725799,2481.4826 406.177419,2479.07463 C407.62904,2476.66665 409.752674,2474.6418 412.548387,2473 L414.483871,2476.20149 C412.44085,2477.56966 410.908607,2479.03357 409.887097,2480.59328 C408.865586,2482.15299 408.354839,2484.08208 408.354839,2486.3806 C408.51613,2486.32587 408.758063,2486.29851 409.080645,2486.29851 C410.155919,2486.29851 411.137092,2486.65423 412.024194,2487.36567 C412.911295,2488.07712 413.354839,2489.11691 413.354839,2490.48507 C413.354839,2491.90797 412.951617,2493.01617 412.145161,2493.8097 C411.338706,2494.60324 410.31721,2495 409.080645,2495 Z M423.596774,2495 C421.983863,2495 420.733875,2494.37065 419.846774,2493.11194 C418.959673,2491.85323 418.516129,2490.01991 418.516129,2487.61194 C418.516129,2484.32834 419.241928,2481.4826 420.693548,2479.07463 C422.145169,2476.66665 424.268803,2474.6418 427.064516,2473 L429,2476.20149 C426.956979,2477.56966 425.424736,2479.03357 424.403226,2480.59328 C423.381715,2482.15299 422.870968,2484.08208 422.870968,2486.3806 C423.032259,2486.32587 423.274192,2486.29851 423.596774,2486.29851 C424.672048,2486.29851 425.653221,2486.65423 426.540323,2487.36567 C427.427424,2488.07712 427.870968,2489.11691 427.870968,2490.48507 C427.870968,2491.90797 427.467746,2493.01617 426.66129,2493.8097 C425.854835,2494.60324 424.83334,2495 423.596774,2495 Z" id="“"></path>
        </g>
    </g>
</svg>